<svg xmlns="http://www.w3.org/2000/svg" xmlns:xlink="http://www.w3.org/1999/xlink" width="368.517" height="401.571" viewBox="0 0 368.517 401.571"><defs><clipPath id="a"><path d="M2619.126,4527.866l.757,246.264c0,74.383,60.9,101.134,118.286,68l210.37-121.466c45.01-25.987,58.526-97.353.758-130.705l-218.7-124.949C2686.592,4439.606,2619.126,4460.622,2619.126,4527.866Z" transform="translate(-2532 -4399)" fill="none" stroke="#07f" stroke-linecap="round" stroke-linejoin="round" stroke-width="4"/></clipPath></defs><g transform="translate(-87.126 -55.581)" clip-path="url(#a)"><g transform="translate(71.98 42.085)"><path d="M2722.274,4717.656l7.97,84.024,27.1,35.522,122.734-75.372,102.241-57.382,22.315-67.629-19.355-40.532L2865.5,4674.619Z" transform="translate(-2598.088 -4432.99)" fill="#f68849" stroke="#707070" stroke-width="1"/><path d="M2803.6,4494.6l-59.638,85.49-25.852,111.085,10.935,39.024s61.757-9.845,121.651-34.417,98.543-48.631,110.829-58.358a141.25,141.25,0,0,0,20.477-19.965l-49.912-62.709Z" transform="translate(-2598.326 -4438.799)" fill="#ffbf50"/><path d="M2612.3,4724.843l123.438-8.76.192,1.283a234.509,234.509,0,0,0,3.581,45.358c5.375,29.179,22.78,55.287,22.78,55.287l-43,42.489h-71.668l-34.042-58.87Z" transform="translate(-2604.37 -4426.147)" fill="#ff6d36"/><path d="M2616.421,4645.44s62.709-10.75,111.342-51.447,55.8-56.055,55.8-56.055-30.2,69.108-36.6,94.96-11.774,52.215-11.262,94.7c0,0-29.307,4.991-58.87,7.679s-60.406,2.3-60.406,2.3Z" transform="translate(-2604.135 -4436.323)" fill="#ffcd69"/><path d="M2615.239,4652.173s54.853-4.323,111.164-45.021,83.674-101.6,83.674-101.6l-90.353-63.733-102.127,7.679-12.8,77.555Z" transform="translate(-2604.799 -4441.814)" fill="#ffd97e"/></g></g></svg>